<svg width="1600" height="1600" viewBox="0 0 1600 1600" fill="none" xmlns="http://www.w3.org/2000/svg">
  <defs>
    <linearGradient id="sqbg" x1="0" y1="0" x2="1600" y2="1600" gradientUnits="userSpaceOnUse">
      <stop stop-color="#050A13"/>
      <stop offset="1" stop-color="#0A1320"/>
    </linearGradient>
    <linearGradient id="sqpanel" x1="0" y1="0" x2="0" y2="1">
      <stop stop-color="#16253A"/>
      <stop offset="1" stop-color="#0B101A"/>
    </linearGradient>
    <filter id="sqglow" x="-50%" y="-50%" width="200%" height="200%">
      <feGaussianBlur stdDeviation="7" result="blur"/>
      <feMerge>
        <feMergeNode in="blur"/>
        <feMergeNode in="SourceGraphic"/>
      </feMerge>
    </filter>
    <pattern id="sqgrid" width="26" height="26" patternUnits="userSpaceOnUse">
      <path d="M 26 0 L 0 0 0 26" stroke="#11314A" stroke-width="1" opacity="0.35"/>
    </pattern>
    <style>
      .t1 { font: 700 26px 'Rajdhani', Arial; letter-spacing: 2px; fill: #EAF8FF; }
      .t2 { font: 700 18px 'Rajdhani', Arial; letter-spacing: 1.3px; fill: #CBEFFF; }
      .t3 { font: 700 14px 'Rajdhani', Arial; letter-spacing: 1.1px; fill: #EAF8FF; }
      .mono { font: 400 13px 'Share Tech Mono', monospace; fill: #BFD0DE; }
      .monoSmall { font: 400 11px 'Share Tech Mono', monospace; fill: #7B98B0; }
      .cyan { fill: #00D4FF; }
      .amber { fill: #FFB347; }
      .red { fill: #FF6A60; }
      .green { fill: #79F2A7; }
    </style>
  </defs>

  <rect width="1600" height="1600" fill="url(#sqbg)"/>
  <rect width="1600" height="1600" fill="url(#sqgrid)" opacity="0.2"/>

  <text x="108" y="108" class="t1" fill="#00D4FF">DETACHED PANEL V2 // READABLE OPS LAYOUT</text>
  <text x="108" y="142" class="monoSmall">放大 3 个 commander 对话区；左边放任务 / 后勤 / 兵种池；最右边完整保留编制树</text>

  <g transform="translate(100 190)">
    <rect x="0" y="0" width="1400" height="1120" rx="18" fill="#070B14" stroke="#1C3650" stroke-width="2"/>

    <!-- Top -->
    <rect x="24" y="24" width="1352" height="68" fill="url(#sqpanel)" stroke="#274863"/>
    <text x="44" y="66" class="t1">AI COMMANDER</text>
    <rect x="224" y="40" width="118" height="34" fill="#103041" stroke="#21DFFF"/>
    <text x="254" y="62" class="t3">OPERATIONAL</text>
    <rect x="756" y="40" width="112" height="34" fill="#0E1827" stroke="#345A77"/>
    <text x="774" y="62" class="monoSmall">MONEY  $53,100</text>
    <rect x="880" y="40" width="92" height="34" fill="#1B1720" stroke="#7A5324"/>
    <text x="899" y="62" class="monoSmall amber">FUEL 170%</text>
    <rect x="984" y="40" width="92" height="34" fill="#20161B" stroke="#7A3138"/>
    <text x="1002" y="62" class="monoSmall red">AMMO 170%</text>
    <rect x="1088" y="40" width="92" height="34" fill="#0E1827" stroke="#345A77"/>
    <text x="1107" y="62" class="monoSmall cyan">INTEL 40</text>
    <text x="1250" y="64" class="t1" fill="#00D4FF">00:00:46</text>
    <rect x="24" y="90" width="1352" height="2" fill="#00D4FF" filter="url(#sqglow)"/>

    <!-- Left column -->
    <rect x="24" y="122" width="328" height="870" fill="url(#sqpanel)" stroke="#2A4C63" stroke-width="2"/>
    <text x="46" y="158" class="t2" fill="#FFB347">MISSION + LOGISTICS</text>
    <rect x="46" y="166" width="284" height="2" fill="#FFB347" filter="url(#sqglow)"/>

    <rect x="46" y="186" width="284" height="188" fill="#0D121C" stroke="#355268"/>
    <text x="64" y="216" class="t2">ACTIVE MISSIONS</text>
    <rect x="64" y="232" width="248" height="32" fill="#151B24" stroke="#6D2D32"/>
    <text x="78" y="253" class="mono">1. Hold supply depot</text>
    <text x="236" y="253" class="mono red">CRITICAL</text>
    <rect x="64" y="275" width="248" height="32" fill="#151B24" stroke="#7A5324"/>
    <text x="78" y="296" class="mono">2. Reinforce triangle</text>
    <text x="255" y="296" class="mono amber">73%</text>
    <rect x="64" y="318" width="248" height="32" fill="#151B24" stroke="#355268"/>
    <text x="78" y="339" class="mono">3. Secure depot road</text>

    <rect x="46" y="394" width="284" height="168" fill="#0D121C" stroke="#355268"/>
    <text x="64" y="424" class="t2">LOGISTICS SNAPSHOT</text>
    <text x="64" y="456" class="mono">Fuel reserve</text>
    <rect x="168" y="444" width="130" height="10" fill="#161D27" stroke="#355268"/>
    <rect x="170" y="446" width="84" height="6" fill="#FFB347"/>
    <text x="64" y="490" class="mono">Ammo reserve</text>
    <rect x="168" y="478" width="130" height="10" fill="#161D27" stroke="#355268"/>
    <rect x="170" y="480" width="64" height="6" fill="#FF6A60"/>
    <text x="64" y="524" class="mono">Intel confidence</text>
    <rect x="168" y="512" width="130" height="10" fill="#161D27" stroke="#355268"/>
    <rect x="170" y="514" width="104" height="6" fill="#27F0FF"/>

    <rect x="46" y="582" width="284" height="388" fill="#0D121C" stroke="#355268"/>
    <text x="64" y="612" class="t2" fill="#00D4FF">CURRENT UNIT POOL</text>
    <text x="64" y="636" class="monoSmall">这里支持上下滚动，兵种多的时候继续往下刷</text>
    <rect x="302" y="648" width="6" height="286" fill="#16202D" stroke="#264055"/>
    <rect x="303" y="702" width="4" height="88" fill="#20E2FF"/>
    <rect x="64" y="654" width="220" height="30" fill="#121926" stroke="#2E516D"/>
    <text x="80" y="674" class="mono">Infantry</text>
    <text x="220" y="674" class="mono cyan">450 / 40 units</text>
    <rect x="64" y="692" width="220" height="30" fill="#121926" stroke="#2E516D"/>
    <text x="80" y="712" class="mono">Armor</text>
    <text x="242" y="712" class="mono amber">60</text>
    <rect x="64" y="730" width="220" height="30" fill="#121926" stroke="#2E516D"/>
    <text x="80" y="750" class="mono">Artillery</text>
    <text x="242" y="750" class="mono">30</text>
    <rect x="64" y="768" width="220" height="30" fill="#121926" stroke="#2E516D"/>
    <text x="80" y="788" class="mono">Recon</text>
    <text x="242" y="788" class="mono">18</text>
    <rect x="64" y="806" width="220" height="30" fill="#121926" stroke="#2E516D"/>
    <text x="80" y="826" class="mono">Engineers</text>
    <text x="242" y="826" class="mono">12</text>

    <!-- Center -->
    <rect x="372" y="122" width="612" height="870" fill="url(#sqpanel)" stroke="#2A4C63" stroke-width="2"/>
    <text x="394" y="158" class="t2" fill="#00D4FF">COMMANDER COMMS</text>
    <text x="394" y="182" class="monoSmall">每位 commander 至少保留两段以上上下文，不再只有一条短消息</text>
    <rect x="394" y="190" width="568" height="2" fill="#00D4FF" filter="url(#sqglow)"/>

    <rect x="394" y="214" width="568" height="176" fill="#0D121C" stroke="#355268"/>
    <rect x="414" y="234" width="528" height="30" fill="#151B24" stroke="#7A3138"/>
    <text x="430" y="255" class="t3 red">CHEN / COMBAT</text>
    <text x="414" y="292" class="mono">"Enemy armor on the move, north ridge. We can hold if I get one more squad."</text>
    <text x="414" y="324" class="mono">"Last exchange burned ammo fast. If we push now, I need support queued behind me."</text>
    <text x="414" y="356" class="monoSmall">08:41 - combat thread still open</text>

    <rect x="394" y="408" width="568" height="176" fill="#0D121C" stroke="#355268"/>
    <rect x="414" y="428" width="528" height="30" fill="#151B24" stroke="#2E69A0"/>
    <text x="430" y="449" class="t3 cyan">MARCUS / OPS</text>
    <text x="414" y="486" class="mono">"Bridge sector is still the hinge. If we lose Delta, the line folds backward."</text>
    <text x="414" y="518" class="mono">"Recommend triangle first, then re-stabilize the center using the road net."</text>
    <text x="414" y="550" class="monoSmall">08:42 - operational recommendation updated</text>

    <rect x="394" y="602" width="568" height="176" fill="#0D121C" stroke="#355268"/>
    <rect x="414" y="622" width="528" height="30" fill="#151B24" stroke="#3A8B5B"/>
    <text x="430" y="643" class="t3 green">EMILY / LOGISTICS</text>
    <text x="414" y="680" class="mono">"Fuel is workable for a local counter. Ammo is the tighter constraint on Chen's side."</text>
    <text x="414" y="712" class="mono">"I can support reinforcements, but not a long pursuit without resupply."</text>
    <text x="414" y="744" class="monoSmall">08:42 - logistics confirms limited offensive window</text>

    <rect x="394" y="796" width="568" height="174" fill="#0D121C" stroke="#355268"/>
    <text x="414" y="828" class="t2">DECISION BOARD</text>
    <rect x="414" y="846" width="370" height="34" fill="#132132" stroke="#7A5324"/>
    <text x="430" y="868" class="mono">Reinforce Triangle</text>
    <rect x="798" y="846" width="76" height="34" fill="#143020" stroke="#2F9D58"/>
    <text x="816" y="868" class="t3">APPROVE</text>
    <rect x="884" y="846" width="58" height="34" fill="#2F1417" stroke="#9A313A"/>
    <text x="900" y="868" class="t3">X</text>
    <text x="414" y="914" class="monoSmall">把决策收缩到底部，保证中上区域优先留给 3 个 commander 的上下文对话。</text>

    <!-- Right -->
    <rect x="1004" y="122" width="372" height="870" fill="url(#sqpanel)" stroke="#2A4C63" stroke-width="2"/>
    <text x="1026" y="158" class="t2" fill="#00D4FF">ORG TREE / BATTLEGROUP BOARD</text>
    <text x="1026" y="182" class="monoSmall">整列给编制树，拖拽 / 重命名 / 调拨的时候不会挤在小角落里</text>
    <rect x="1026" y="190" width="328" height="2" fill="#00D4FF" filter="url(#sqglow)"/>

    <rect x="1026" y="214" width="328" height="54" fill="#0D121C" stroke="#355268"/>
    <rect x="1042" y="227" width="90" height="28" fill="#1A2232" stroke="#7A3138"/>
    <text x="1063" y="246" class="mono">CHEN (4)</text>
    <rect x="1140" y="227" width="96" height="28" fill="#1A2232" stroke="#2E69A0"/>
    <text x="1155" y="246" class="mono">MARCUS (6)</text>
    <rect x="1244" y="227" width="94" height="28" fill="#1A2232" stroke="#3A8B5B"/>
    <text x="1263" y="246" class="mono">EMILY (3)</text>

    <line x1="1190" y1="286" x2="1190" y2="330" stroke="#245A78" stroke-width="2"/>
    <rect x="1118" y="330" width="144" height="42" fill="#121926" stroke="#355268"/>
    <text x="1142" y="356" class="mono">Marcus HQ</text>

    <line x1="1190" y1="372" x2="1190" y2="412" stroke="#245A78" stroke-width="2"/>
    <line x1="1084" y1="412" x2="1296" y2="412" stroke="#245A78" stroke-width="2"/>
    <line x1="1084" y1="412" x2="1084" y2="446" stroke="#245A78" stroke-width="2"/>
    <line x1="1190" y1="412" x2="1190" y2="446" stroke="#245A78" stroke-width="2"/>
    <line x1="1296" y1="412" x2="1296" y2="446" stroke="#245A78" stroke-width="2"/>

    <rect x="1038" y="446" width="92" height="48" fill="#121926" stroke="#355268"/>
    <text x="1054" y="473" class="mono">Alpha Sq.</text>
    <text x="1054" y="488" class="monoSmall">8 units</text>

    <rect x="1144" y="446" width="92" height="48" fill="#121926" stroke="#355268"/>
    <text x="1160" y="473" class="mono">Bravo Sq.</text>
    <text x="1160" y="488" class="monoSmall">6 units</text>

    <rect x="1250" y="446" width="92" height="48" fill="#121926" stroke="#355268"/>
    <text x="1266" y="473" class="mono">Delta Sq.</text>
    <text x="1266" y="488" class="monoSmall">2 units</text>

    <line x1="1084" y1="494" x2="1084" y2="534" stroke="#245A78" stroke-width="2"/>
    <line x1="1084" y1="534" x2="1058" y2="534" stroke="#245A78" stroke-width="2"/>
    <line x1="1058" y1="534" x2="1058" y2="566" stroke="#245A78" stroke-width="2"/>
    <rect x="1018" y="566" width="80" height="40" fill="#121926" stroke="#355268"/>
    <text x="1032" y="590" class="monoSmall">A-1 Team</text>

    <line x1="1190" y1="494" x2="1190" y2="534" stroke="#245A78" stroke-width="2"/>
    <line x1="1190" y1="534" x2="1220" y2="534" stroke="#245A78" stroke-width="2"/>
    <line x1="1220" y1="534" x2="1220" y2="566" stroke="#245A78" stroke-width="2"/>
    <rect x="1178" y="566" width="84" height="40" fill="#121926" stroke="#355268"/>
    <text x="1190" y="590" class="monoSmall">B-2 Armor</text>

    <rect x="1026" y="642" width="328" height="122" fill="#0D121C" stroke="#355268"/>
    <text x="1044" y="672" class="t2" fill="#FFB347">COMMANDER BUCKETS</text>
    <text x="1044" y="706" class="mono">Chen battalion  [4 squads]</text>
    <text x="1044" y="736" class="mono">Marcus battalion [6 squads]</text>
    <text x="1044" y="766" class="mono">Emily battalion  [3 squads]</text>

    <rect x="1026" y="788" width="328" height="182" fill="#0D121C" stroke="#355268"/>
    <text x="1044" y="820" class="t2" fill="#FF6A60">KIA / ALERTS</text>
    <text x="1044" y="854" class="mono red">BASE UNDER ATTACK</text>
    <text x="1044" y="886" class="mono">KIA: 12</text>
    <text x="1044" y="918" class="monoSmall">被打空的 squad 可以继续在这列底部归档展示</text>

    <!-- Bottom dock -->
    <rect x="24" y="1012" width="1352" height="76" fill="url(#sqpanel)" stroke="#294C63" stroke-width="2"/>
    <text x="48" y="1058" class="t2">COMMAND DOCK</text>
    <rect x="220" y="1030" width="96" height="36" fill="#132132" stroke="#2E69A0"/>
    <text x="235" y="1053" class="t3">CREATE SQUAD</text>
    <rect x="326" y="1030" width="64" height="36" fill="#132132" stroke="#355268"/>
    <text x="344" y="1053" class="t3">MOVE</text>
    <rect x="400" y="1030" width="86" height="36" fill="#132132" stroke="#355268"/>
    <text x="419" y="1053" class="t3">DOCTRINE</text>
    <rect x="496" y="1030" width="86" height="36" fill="#132132" stroke="#355268"/>
    <text x="519" y="1053" class="t3">TRANSFER</text>
    <rect x="596" y="1030" width="512" height="36" fill="#090D16" stroke="#355268"/>
    <text x="614" y="1053" class="mono">对 Marcus 上尉下令... / 或让 3 位 commander 协调下一步</text>
    <rect x="1122" y="1030" width="78" height="36" fill="#143020" stroke="#2F9D58"/>
    <text x="1144" y="1053" class="t3">SEND</text>
    <rect x="1212" y="1030" width="64" height="36" fill="#142435" stroke="#2E69A0"/>
    <text x="1232" y="1053" class="t3">PTT</text>
  </g>
</svg>
